<svg width="49" height="36" viewBox="0 0 49 36" fill="none" xmlns="http://www.w3.org/2000/svg">
<path fill-rule="evenodd" clip-rule="evenodd" d="M10.1311 1.42504e-05C9.04859 -0.00109415 7.95315 0.0624529 6.85024 0.191759C6.43311 0.240528 6.11908 0.593729 6.11908 1.01343V3.63513H1.32759C0.87057 3.63513 0.5 4.0057 0.5 4.46235V34.9166C0.5 35.2051 0.650743 35.473 0.897166 35.623C1.1436 35.7734 1.45062 35.7841 1.70739 35.6515C7.86482 32.4696 15.8984 31.4052 24.3747 32.7105H24.3965C24.4309 32.7135 24.4656 32.7139 24.5 32.7124C24.5347 32.7139 24.5691 32.7135 24.6035 32.7105H24.6256C33.1021 31.4052 41.1357 32.4697 47.293 35.6515H47.2926C47.5494 35.7841 47.8564 35.7734 48.1028 35.623C48.3496 35.473 48.5 35.2051 48.5 34.9166V4.46235C48.5 4.0057 48.1294 3.63513 47.6728 3.63513H42.879V1.01343C42.879 0.593729 42.565 0.240525 42.1479 0.191759C40.8877 0.0439755 39.637 -0.0177199 38.4041 0.00444053C33.2801 0.0968049 28.4618 1.64372 24.4988 4.51852C20.5357 1.64372 15.7171 0.0972248 10.5934 0.00444053C10.4394 0.00148487 10.285 0.00148487 10.1302 0.00148487L10.1311 1.42504e-05ZM10.2183 1.65443C10.3335 1.6548 10.4484 1.65591 10.5633 1.65739C15.4354 1.74347 19.9683 3.23387 23.6723 5.96973V30.2875C19.1328 27.2912 13.5805 25.9564 7.77413 26.4455V4.46768C7.7745 4.46546 7.77487 4.46325 7.77524 4.4614C7.77487 4.45512 7.7745 4.44884 7.77413 4.44256V1.76439C8.59618 1.6905 9.41191 1.65097 10.2189 1.65319L10.2183 1.65443ZM38.7809 1.65443C39.5874 1.65221 40.4035 1.69212 41.2256 1.76564V26.4466C35.4192 25.9575 29.8664 27.2923 25.3274 30.2886V5.97082C29.0312 3.23496 33.5642 1.74455 38.4364 1.65848C38.5513 1.65626 38.6662 1.65552 38.7815 1.65552L38.7809 1.65443ZM2.15521 5.28995H6.11949V27.3558L6.11912 27.3554C6.11912 27.5919 6.22035 27.8169 6.39659 27.9735C6.57319 28.1305 6.80853 28.2048 7.04276 28.1774C12.1125 27.5834 16.9577 28.4623 21.0635 30.6583C14.1332 30.1041 7.58282 31.102 2.1548 33.5929L2.15521 5.28995ZM42.881 5.28995H46.8472V33.5934C41.4187 31.1021 34.8675 30.1046 27.9366 30.6588C32.0423 28.4628 36.8878 27.5834 41.9573 28.1776L41.9569 28.178C42.1915 28.2053 42.4269 28.131 42.6035 27.9744C42.7797 27.8174 42.8809 27.5924 42.8809 27.3559L42.881 5.28995Z" fill="#1C1D1F"/>
</svg>
