<svg width="301" height="201" viewBox="0 0 301 201" fill="none" xmlns="http://www.w3.org/2000/svg">
<rect width="300.134" height="200.134" fill="#CDF2FD"/>
<rect width="138.134" height="138.134" transform="translate(81 31)" fill="#CDF2FD"/>
<path fill-rule="evenodd" clip-rule="evenodd" d="M203.076 76.4635V123.377C203.076 140.759 192.198 153.018 174.816 153.018H125.03C107.648 153.018 96.8279 140.759 96.8279 123.377V76.4635C96.8279 59.0817 107.706 46.8281 125.03 46.8281H174.816C192.198 46.8281 203.076 59.0817 203.076 76.4635Z" stroke="#3186C6" stroke-width="8" stroke-linecap="round" stroke-linejoin="round"/>
<path d="M111.397 125.569L120.191 116.285C123.248 113.045 128.341 112.889 131.587 115.94C131.685 116.037 136.98 121.419 136.98 121.419C140.175 124.671 145.395 124.723 148.647 121.534C148.86 121.327 162.08 105.292 162.08 105.292C165.488 101.154 171.606 100.561 175.75 103.974C176.026 104.204 188.516 117.022 188.516 117.022" stroke="#3186C6" stroke-width="8" stroke-linecap="round" stroke-linejoin="round"/>
<path fill-rule="evenodd" clip-rule="evenodd" d="M140.355 83.566C140.355 89.1431 135.837 93.6612 130.26 93.6612C124.682 93.6612 120.164 89.1431 120.164 83.566C120.164 77.9888 124.682 73.4707 130.26 73.4707C135.837 73.4765 140.355 77.9888 140.355 83.566Z" stroke="#3186C6" stroke-width="8" stroke-linecap="round" stroke-linejoin="round"/>
</svg>
