<svg width="64" height="60" viewBox="0 0 64 60" fill="none" xmlns="http://www.w3.org/2000/svg">
<path d="M18.1049 15.8445H46.0052C46.613 15.8445 47.1088 15.3514 47.1088 14.7435C47.1088 14.1357 46.613 13.6426 46.0052 13.6426H18.1049C17.497 13.6426 17.0039 14.1357 17.0039 14.7435C17.0039 15.3487 17.497 15.8445 18.1049 15.8445Z" fill="#3186C6"/>
<path d="M18.1049 23.1804H46.0052C46.613 23.1804 47.1088 22.6873 47.1088 22.0795C47.1088 21.4717 46.613 20.9785 46.0052 20.9785H18.1049C17.497 20.9785 17.0039 21.4717 17.0039 22.0795C17.0039 22.6873 17.497 23.1804 18.1049 23.1804Z" fill="#3186C6"/>
<path d="M18.1049 30.5164H46.0052C46.613 30.5164 47.1088 30.0232 47.1088 29.4154C47.1088 28.8076 46.613 28.3145 46.0052 28.3145H18.1049C17.497 28.3145 17.0039 28.8076 17.0039 29.4154C17.0039 30.0232 17.497 30.5164 18.1049 30.5164Z" fill="#3186C6"/>
<path d="M62.6601 19.9007L54.295 14.0893L54.4976 8.3207C54.4976 7.71287 54.0018 7.21974 53.394 7.21974H42.7868C42.7788 7.21438 42.7761 7.20367 42.7681 7.19831L32.7023 0.18731C32.6943 0.181955 32.6863 0.181955 32.6809 0.1766C32.6198 0.136435 32.5501 0.118137 32.4836 0.088683C32.4171 0.0619058 32.3502 0.0248658 32.281 0.0114772C32.2409 0.00344421 32.2012 0.0114772 32.1583 0.00879948C32.057 0.00076654 31.9584 -0.00726601 31.8598 0.0114772C31.8169 0.0195101 31.7799 0.0462872 31.737 0.0596758C31.6438 0.0891299 31.5505 0.118138 31.4679 0.174368C31.4599 0.179724 31.4519 0.179724 31.4438 0.185079L21.3383 7.20637C21.333 7.21172 21.3303 7.21708 21.3249 7.21975H10.883C10.2751 7.21975 9.78201 7.71289 9.78201 8.32072V14.1773L1.54456 19.9008C1.54456 19.9008 -1.78243 22.1853 2.06179 24.9179L11.9652 31.9583L11.9839 31.4973V9.42478H52.2926V32.0891C52.2926 32.0891 54.4227 30.3964 62.1424 24.9183C65.9894 22.1911 62.6597 19.9012 62.6597 19.9012L62.6601 19.9007Z" fill="#3186C6"/>
<path d="M9.75522 32.1054L1.24609 26.1289V58.582C1.24609 59.3656 1.88606 60.0002 2.66973 60.0002H61.4396C62.2259 60.0002 62.8632 59.3656 62.8632 58.582L62.8628 26.1483L54.5005 32.1088L52.2958 33.6816L40.0417 42.4147L54.7864 53.8162C55.2689 54.1867 55.3541 54.8797 54.9837 55.3626C54.6079 55.8423 53.9202 55.9276 53.4374 55.5598L31.735 38.7735L28.3628 41.4365C28.3254 41.482 28.1763 41.6016 28.0085 41.7029L26.601 42.8146C26.5318 42.8838 26.4568 42.9427 26.3743 42.9931L10.4574 55.5512C9.9776 55.9269 9.28723 55.8417 8.91102 55.3673C8.53524 54.8875 8.61514 54.1944 9.09488 53.8182L23.9676 42.0885L11.8997 33.6114L9.75522 32.1054Z" fill="#3186C6"/>
</svg>
