<svg width="79" height="60" viewBox="0 0 79 60" fill="none" xmlns="http://www.w3.org/2000/svg">
<path fill-rule="evenodd" clip-rule="evenodd" d="M21.1766 9.37466C20.7402 9.74927 20.4353 10.8876 20.1152 12.2218C13.8834 14.6185 7.51581 16.3721 0.997691 17.4298C0.134531 14.4936 -0.389185 10.8069 0.3582 9.92382C11.5508 -3.30794 66.6582 -3.30794 77.8494 9.92382C78.5968 10.8064 78.0743 14.4929 77.2111 17.4298C70.6938 16.3727 64.325 14.6185 58.0936 12.2218C57.7736 10.8877 57.4687 9.74816 57.0322 9.37466C54.3373 7.06224 23.8698 7.06224 21.176 9.37466H21.1766ZM14.9926 34.4168C25.7747 27.5472 15.252 14.0175 25.9069 14.2177V9.87401H32.3425C32.3292 12.401 33.3093 13.6109 34.3398 14.1886C37.5167 14.1796 40.694 14.1796 43.8703 14.1886C44.9008 13.611 45.8809 12.4006 45.8676 9.87401H52.3031V14.2177C62.9581 14.0164 52.4353 27.5469 63.2175 34.4168C71.2157 39.5127 71.9292 42.6029 71.9292 49.61V60H6.2809V49.61C6.2809 42.6029 6.99435 39.5127 14.9926 34.4168ZM39.1052 22.2798C31.0901 22.3659 24.6212 27.9516 24.6212 34.8283C24.6212 41.705 31.0906 47.2913 39.1052 47.3775C47.1203 47.2914 53.5892 41.7044 53.5892 34.8283C53.5892 27.9516 47.1198 22.3664 39.1052 22.2798ZM39.1052 42.046C43.6787 41.9605 47.3574 38.7618 47.3574 34.8272C47.3574 30.8938 43.6787 27.6952 39.1052 27.6097C34.5306 27.6952 30.8524 30.8938 30.8524 34.8272C30.8524 38.7612 34.5311 41.9605 39.1052 42.046ZM58.4834 13.8367C58.9441 15.6648 59.5254 17.4476 60.5491 17.9142C64.7674 19.8364 72.6497 21.8925 75.2488 21.2674C75.7156 21.1553 76.2647 20.1618 76.763 18.8009C70.2669 17.6874 64.1932 16.0059 58.4834 13.8366L58.4834 13.8367ZM19.727 13.8367C19.2669 15.6648 18.6862 17.4476 17.6617 17.9142C13.4435 19.8364 5.5612 21.8925 2.96202 21.2674C2.49528 21.1553 1.9461 20.1618 1.44785 18.8009C7.94394 17.6874 14.0164 16.0059 19.7259 13.8366L19.727 13.8367Z" fill="#3186C6"/>
</svg>
