<svg width="34" height="48" viewBox="0 0 34 48" fill="none" xmlns="http://www.w3.org/2000/svg">
<path d="M11.8878 0.00450203H11.8279C11.6022 -0.0202722 11.3776 0.0580684 11.2169 0.218099L0.717878 10.7171C0.670673 10.7653 0.630501 10.8196 0.597692 10.8785L0.57526 10.9197C0.546134 10.9779 0.524707 11.0398 0.51165 11.1035C0.502611 11.153 0.498928 11.2032 0.500267 11.2534V47.2501C0.500267 47.4489 0.579278 47.6398 0.719889 47.7804C0.860501 47.921 1.05133 48 1.2502 48H32.7472C32.9461 48 33.1369 47.921 33.2775 47.7804C33.4182 47.6398 33.4972 47.4489 33.4972 47.2501V0.754429C33.4972 0.555565 33.4182 0.364731 33.2775 0.224122C33.1369 0.083512 32.9461 0.00449945 32.7472 0.00449945L11.8878 0.00450203ZM10.9993 2.56566V10.5035H3.06144L10.9993 2.56566ZM31.9973 46.5004H2.00014V12.0036H11.7492C11.9481 12.0036 12.1389 11.9246 12.2795 11.784C12.4201 11.6434 12.4992 11.4526 12.4992 11.2537V1.50462H31.9973V46.5004Z" fill="#1C1D1F"/>
<path d="M13.2489 34.502H7.24944C6.83531 34.502 6.49951 34.8378 6.49951 35.2519V41.2513C6.49951 41.4502 6.57852 41.641 6.71913 41.7816C6.85975 41.9222 7.05058 42.0013 7.24944 42.0013H13.2489C13.4477 42.0013 13.6386 41.9222 13.7792 41.7816C13.9198 41.641 13.9988 41.4502 13.9988 41.2513V35.2519C13.9988 35.053 13.9198 34.8622 13.7792 34.7216C13.6386 34.581 13.4477 34.502 13.2489 34.502ZM12.4989 40.5014H7.99937V36.0018H12.4989V40.5014Z" fill="black"/>
<path d="M13.7779 24.2336C13.6372 24.093 13.4464 24.0137 13.2472 24.0137C13.0483 24.0137 12.8575 24.093 12.7169 24.2336L10.2495 26.6973L7.78613 24.234V24.2336C7.49286 23.9407 7.0178 23.9407 6.72483 24.2336C6.43189 24.5269 6.43189 25.002 6.72483 25.2949L9.19592 27.7509L6.73255 30.2143H6.73221C6.43927 30.5076 6.43927 30.9826 6.73221 31.2756C7.02549 31.5685 7.50055 31.5685 7.79351 31.2756L10.2495 28.8159L12.7129 31.2793C13.0062 31.5722 13.4812 31.5722 13.7742 31.2793C14.0671 30.9863 14.0671 30.5113 13.7742 30.2183L11.3145 27.7509L13.7779 25.2876C14.0661 24.9953 14.0661 24.5259 13.7779 24.2336L13.7779 24.2336Z" fill="black"/>
<path d="M9.62691 17.6882L7.77823 15.8395V15.8399C7.48529 15.5466 7.01023 15.5466 6.71727 15.8399C6.42399 16.1328 6.42399 16.6079 6.71727 16.9008L9.09459 19.2781H9.09426C9.2352 19.4191 9.42604 19.4981 9.6249 19.4981C9.8241 19.4981 10.0149 19.4191 10.1555 19.2781L13.7777 15.656C14.0706 15.3631 14.0706 14.8877 13.7777 14.5947C13.4847 14.3018 13.0097 14.3018 12.7167 14.5947L9.62691 17.6882Z" fill="black"/>
<path d="M16.2487 18.0038H26.7477C27.1619 18.0038 27.4977 17.668 27.4977 17.2538C27.4977 16.8397 27.1619 16.5039 26.7477 16.5039H16.2487C15.8346 16.5039 15.4988 16.8397 15.4988 17.2538C15.4988 17.668 15.8346 18.0038 16.2487 18.0038Z" fill="black"/>
<path d="M16.2487 28.5018H26.7477C27.1619 28.5018 27.4977 28.166 27.4977 27.7519C27.4977 27.3378 27.1619 27.002 26.7477 27.002H16.2487C15.8346 27.002 15.4988 27.3378 15.4988 27.7519C15.4988 28.166 15.8346 28.5018 16.2487 28.5018Z" fill="black"/>
<path d="M16.2487 39.0018H26.7477C27.1619 39.0018 27.4977 38.666 27.4977 38.2519C27.4977 37.8378 27.1619 37.502 26.7477 37.502H16.2487C15.8346 37.502 15.4988 37.8378 15.4988 38.2519C15.4988 38.666 15.8346 39.0018 16.2487 39.0018Z" fill="black"/>
</svg>
