<svg width="49" height="48" viewBox="0 0 49 48" fill="none" xmlns="http://www.w3.org/2000/svg">
<path d="M24.5 0C11.2659 0 0.5 10.7668 0.5 24C0.5 37.2332 11.2668 48 24.5 48C37.7332 48 48.5 37.2332 48.5 24C48.5 10.7668 37.7332 0 24.5 0ZM24.5 46.1262C12.3001 46.1262 2.37472 36.2008 2.37472 24.0009C2.37472 11.801 12.3001 1.87561 24.5 1.87561C36.6999 1.87561 46.6253 11.801 46.6253 24.0009C46.6253 36.2008 36.6999 46.1262 24.5 46.1262ZM36.6173 21.9707L18.898 11.7406C18.164 11.3164 17.2877 11.3164 16.5543 11.7406C15.8202 12.164 15.3825 12.9227 15.3825 13.7702V34.2305C15.3825 35.078 15.8205 35.8367 16.5543 36.2602C16.9211 36.4722 17.3241 36.5777 17.726 36.5777C18.1286 36.5777 18.5309 36.4719 18.8978 36.2602L36.617 26.03C37.3511 25.6059 37.7888 24.8473 37.7888 24.0004C37.7891 23.1535 37.3511 22.3941 36.617 21.9707H36.6173ZM35.6798 24.406L17.9606 34.6362C17.8027 34.7274 17.6493 34.7267 17.4917 34.6362C17.3341 34.5449 17.2574 34.4123 17.2574 34.2304L17.2571 13.7702C17.2571 13.5883 17.3338 13.4558 17.4914 13.3645C17.5701 13.319 17.6479 13.2961 17.7256 13.2961C17.8034 13.2961 17.8811 13.319 17.9599 13.3645L35.6791 23.5946C35.8367 23.6859 35.9134 23.8185 35.9134 24.0003C35.9134 24.1822 35.8374 24.3148 35.6798 24.406H35.6798Z" fill="#1C1D1F"/>
</svg>
