<svg width="60" height="60" viewBox="0 0 60 60" fill="none" xmlns="http://www.w3.org/2000/svg">
<g clip-path="url(#clip0_1564_18139)">
<path d="M44.3969 34.4766C44.28 34.4205 39.9059 32.2665 39.1286 31.9868C38.8113 31.8728 38.4713 31.7616 38.1098 31.7616C37.5191 31.7616 37.0229 32.0559 36.6364 32.6341C36.1995 33.2836 34.8768 34.8298 34.4681 35.2917C34.4147 35.3526 34.3418 35.4255 34.2982 35.4255C34.259 35.4255 33.5821 35.1467 33.3772 35.0577C28.6849 33.0195 25.1233 28.118 24.6349 27.2914C24.5652 27.1726 24.5622 27.1186 24.5616 27.1186C24.5788 27.0557 24.7366 26.8975 24.818 26.8159C25.0563 26.5802 25.3144 26.2695 25.5641 25.9689C25.6824 25.8265 25.8008 25.6839 25.9171 25.5495C26.2794 25.1279 26.4407 24.8006 26.6277 24.4215L26.7257 24.2246C27.1824 23.3174 26.7924 22.5518 26.6663 22.3046C26.5629 22.0977 24.7159 17.6402 24.5196 17.1719C24.0474 16.0418 23.4234 15.5156 22.5563 15.5156C22.4759 15.5156 22.5563 15.5156 22.2189 15.5298C21.8081 15.5472 19.5707 15.8417 18.5815 16.4653C17.5325 17.1267 15.7578 19.2348 15.7578 22.9424C15.7578 26.2792 17.8753 29.4298 18.7845 30.628C18.8071 30.6582 18.8486 30.7196 18.9088 30.8076C22.3905 35.8924 26.731 39.6608 31.1311 41.4185C35.3671 43.1106 37.373 43.3061 38.5134 43.3061C38.5136 43.3061 38.5136 43.3061 38.5136 43.3061C38.9928 43.3061 39.3764 43.2685 39.7148 43.2352L39.9294 43.2148C41.3928 43.085 44.6087 41.4187 45.3402 39.3859C45.9164 37.7848 46.0683 36.0354 45.685 35.4006C45.4224 34.9689 44.9698 34.7517 44.3969 34.4766Z" fill="#3186C6"/>
<path d="M30.5325 0C14.2827 0 1.06242 13.1209 1.06242 29.2486C1.06242 34.4649 2.4584 39.571 5.10288 44.0398L0.0412535 58.9706C-0.0530322 59.249 0.0170976 59.5568 0.223007 59.7664C0.371643 59.9182 0.573266 60 0.779175 60C0.858072 60 0.937552 59.9881 1.01508 59.9634L16.5839 55.0161C20.8443 57.2924 25.6595 58.494 30.5327 58.494C46.7811 58.4942 59.9999 45.3746 59.9999 29.2486C59.9999 13.1209 46.7811 0 30.5325 0ZM30.5325 52.4014C25.947 52.4014 21.5057 51.0773 17.6879 48.5721C17.5595 48.4878 17.4105 48.4445 17.2605 48.4445C17.1812 48.4445 17.1017 48.4566 17.0244 48.4812L9.22534 50.9603L11.743 43.5325C11.8244 43.2921 11.7837 43.027 11.6337 42.8221C8.72645 38.8496 7.18963 34.1562 7.18963 29.2486C7.18963 16.4805 17.6612 6.09273 30.5324 6.09273C43.402 6.09273 53.8724 16.4805 53.8724 29.2486C53.8725 42.0152 43.4024 52.4014 30.5325 52.4014Z" fill="#3186C6"/>
</g>
<defs>
<clipPath id="clip0_1564_18139">
<rect width="60" height="60" fill="white"/>
</clipPath>
</defs>
</svg>
