<svg width="32" height="32" viewBox="0 0 32 32" fill="none" xmlns="http://www.w3.org/2000/svg">
<circle cx="16" cy="16" r="16" fill="#3186C6"/>
<path d="M23.0463 9.06752H20.9788V7.79662C20.9788 7.36041 20.6184 7 20.1821 7H19.2149C18.7786 7 18.4182 7.36041 18.4182 7.79662V9.04849H13.6006V7.79662C13.6006 7.36041 13.2402 7 12.804 7H11.8367C11.4004 7 11.04 7.36041 11.04 7.79662V9.04849H8.97252C7.87242 9.04849 7 9.93994 7 11.021V22.9703C7 24.0704 7.89146 24.9428 8.97252 24.9428H23.0272C24.1273 24.9428 24.9997 24.0514 24.9997 22.9703V11.021C25.0188 9.95901 24.1273 9.06752 23.0462 9.06752H23.0463ZM23.0463 23.8429H8.97265C8.49847 23.8429 8.11916 23.4636 8.11916 22.9895V13.6766H23.8809V22.9895C23.8999 23.4636 23.5016 23.8429 23.0464 23.8429H23.0463Z" fill="white"/>
<path d="M12.4438 15.4023H10.3574C10.0729 15.4023 9.84521 15.6299 9.84521 15.9145V17.4888C9.84521 17.7732 10.0728 18.0009 10.3574 18.0009H12.4438C12.7283 18.0009 12.956 17.7733 12.956 17.4888V15.9145C12.956 15.6299 12.7284 15.4023 12.4438 15.4023Z" fill="white"/>
<path d="M17.0693 15.4023H14.9829C14.6984 15.4023 14.4707 15.6299 14.4707 15.9145V17.4888C14.4707 17.7732 14.6983 18.0009 14.9829 18.0009H17.0693C17.3538 18.0009 17.5815 17.7733 17.5815 17.4888V15.9145C17.5815 15.6299 17.3539 15.4023 17.0693 15.4023Z" fill="white"/>
<path d="M21.7207 15.4023H19.6342C19.3498 15.4023 19.1221 15.6299 19.1221 15.9145V17.4888C19.1221 17.7732 19.3496 18.0009 19.6342 18.0009H21.7207C22.0051 18.0009 22.2328 17.7733 22.2328 17.4888V15.9145C22.2328 15.6299 22.0053 15.4023 21.7207 15.4023Z" fill="white"/>
<path d="M12.4438 19.5752H10.3574C10.0729 19.5752 9.84521 19.8028 9.84521 20.0873V21.6616C9.84521 21.9461 10.0728 22.1738 10.3574 22.1738H12.4438C12.7283 22.1738 12.956 21.9462 12.956 21.6616V20.0873C12.956 19.8028 12.7284 19.5752 12.4438 19.5752Z" fill="white"/>
<path d="M17.0693 19.5752H14.9829C14.6984 19.5752 14.4707 19.8028 14.4707 20.0873V21.6616C14.4707 21.9461 14.6983 22.1738 14.9829 22.1738H17.0693C17.3538 22.1738 17.5815 21.9462 17.5815 21.6616V20.0873C17.5815 19.8028 17.3539 19.5752 17.0693 19.5752Z" fill="white"/>
<path d="M21.7207 19.5752H19.6342C19.3498 19.5752 19.1221 19.8028 19.1221 20.0873V21.6616C19.1221 21.9461 19.3496 22.1738 19.6342 22.1738H21.7207C22.0051 22.1738 22.2328 21.9462 22.2328 21.6616V20.0873C22.2328 19.8028 22.0053 19.5752 21.7207 19.5752Z" fill="white"/>
</svg>
