<svg width="32" height="32" viewBox="0 0 32 32" fill="none" xmlns="http://www.w3.org/2000/svg">
<circle cx="16" cy="16" r="16" fill="#3186C6"/>
<path fill-rule="evenodd" clip-rule="evenodd" d="M14.5893 23.4H10.0113V8.01115H18.6342V11.1552H21.7782V13.8579H22.7895L22.7894 10.0153L19.7924 7H9V24.4113H14.5893L14.5893 23.4ZM19.4616 7.90084L21.8885 10.3278H19.4616V7.90084ZM16.4462 11.8168H11.7211V12.9384H16.4462V11.8168ZM14.1496 20.2926H11.6859V21.3958H14.1496V20.2926ZM11.6859 17.4796H14.7747V18.5829H11.6859V17.4796ZM15.2704 14.777H11.7035V15.8066H15.2704V14.777ZM17.0736 21.5797C17.2759 21.9475 17.662 22.1681 18.0849 22.1681L18.0849 22.1496H18.618L17.2207 24.9995L16.5588 23.9882L15.2719 24.2824L16.7979 21.1201C16.7979 21.1201 16.8162 21.1569 16.853 21.212L17.0736 21.5797ZM22.5145 21.58C22.3123 21.9477 21.9261 22.1684 21.5033 22.1684L20.823 22.2052L22.202 24.9999L22.8639 23.9887L24.1508 24.2829L22.6984 21.2493L22.5145 21.58ZM23.2125 17.1121L23.617 17.7924L23.617 17.7923C23.709 17.9577 23.709 18.1416 23.617 18.2886L23.2126 18.9873V19.7595C23.2126 19.9433 23.1206 20.0904 22.9735 20.1823L22.3116 20.5685L21.9071 21.2487C21.8152 21.3958 21.6497 21.4878 21.4843 21.4878H20.6938L20.0135 21.874C19.9399 21.9291 19.8664 21.9475 19.7745 21.9475C19.7009 21.9475 19.6089 21.9108 19.5354 21.874L18.8552 21.4878H18.083C17.8992 21.4878 17.7521 21.3958 17.6601 21.2487L17.274 20.5685L16.5753 20.164C16.4282 20.0721 16.3362 19.9066 16.3362 19.7412V18.9507L15.9501 18.2888C15.8949 18.2152 15.8766 18.1417 15.8766 18.0497C15.8766 17.9761 15.9132 17.8841 15.9501 17.8107L16.3362 17.1488V16.3582C16.3362 16.1745 16.4282 16.0274 16.5753 15.9354L17.274 15.5309L17.6601 14.8507C17.7521 14.7036 17.9175 14.6116 18.083 14.6116H18.8554L19.5356 14.2255C19.6828 14.1335 19.8665 14.1335 20.0136 14.2255L20.6939 14.6116H21.4844C21.6682 14.6116 21.8153 14.7036 21.9072 14.8507L22.3117 15.5309L22.9735 15.9171C23.1206 16.0091 23.2125 16.1745 23.2125 16.3399V17.1121ZM20.6569 18.4726L21.3373 17.8107C21.3556 17.774 21.3739 17.7188 21.3735 17.6636C21.3552 17.6085 21.3184 17.5717 21.2633 17.5717L20.3256 17.4429L19.9028 16.5971C19.8661 16.5051 19.719 16.5051 19.6822 16.5971L19.2593 17.4429L18.3217 17.5717C18.2666 17.5901 18.2297 17.6268 18.2114 17.6636C18.1931 17.7004 18.2114 17.7556 18.2482 17.7924L18.9285 18.4543L18.763 19.3919C18.763 19.4472 18.7814 19.4839 18.8182 19.5207C18.855 19.5573 18.9101 19.5573 18.9469 19.539L19.7927 19.0977L20.6385 19.539C20.6569 19.5573 20.6754 19.5573 20.6937 19.5573C20.712 19.5573 20.7488 19.5573 20.7672 19.539C20.804 19.5022 20.8223 19.4654 20.8223 19.4102L20.6569 18.4726Z" fill="white"/>
</svg>
