<svg width="32" height="32" viewBox="0 0 32 32" fill="none" xmlns="http://www.w3.org/2000/svg">
<circle cx="16" cy="16" r="16" fill="#3186C6"/>
<path fill-rule="evenodd" clip-rule="evenodd" d="M21.0491 17.5609C21.0491 17.1972 21.344 16.9023 21.7077 16.9023H24.3419C24.7056 16.9023 25.0004 17.1972 25.0004 17.5609V20.1951C25.0004 20.5588 24.7056 20.8537 24.3419 20.8537C23.9782 20.8537 23.6833 20.5588 23.6833 20.1951V19.1508L20.4171 22.4169C20.16 22.6741 19.7432 22.6741 19.4859 22.4169C19.2287 22.1596 19.2287 21.7427 19.4859 21.4856L22.7519 18.2195H21.7077C21.344 18.2195 21.0491 17.9246 21.0491 17.5609Z" fill="white"/>
<path fill-rule="evenodd" clip-rule="evenodd" d="M19.0619 9.65856C19.0619 9.29473 19.3568 9 19.7204 9H23.4639C23.8276 9 24.1225 9.29473 24.1225 9.65856C24.1225 10.0222 23.8276 10.3171 23.4639 10.3171H20.379V13.3277C20.379 13.6913 20.0843 13.9862 19.7204 13.9862H16.2198V17.4044C16.2198 17.7681 15.9249 18.063 15.5613 18.063H12.0605V21.0735C12.0605 21.4372 11.7656 21.7321 11.4019 21.7321H7.65856C7.29488 21.7321 7 21.4372 7 21.0735C7 20.7098 7.29488 20.415 7.65856 20.415H10.7434V17.4044C10.7434 17.0407 11.0382 16.7458 11.4019 16.7458H14.9027V13.3277C14.9027 12.9638 15.1976 12.6691 15.5613 12.6691H19.0619V9.65856Z" fill="white"/>
</svg>
