<svg width="32" height="32" viewBox="0 0 32 32" fill="none" xmlns="http://www.w3.org/2000/svg">
<path d="M16 32C11.7565 32 7.68692 30.3143 4.68637 27.3136C1.6857 24.3132 0 20.2434 0 16C0 11.7566 1.6857 7.68692 4.68637 4.68637C7.6868 1.6857 11.7566 0 16 0C20.2434 0 24.3131 1.6857 27.3136 4.68637C30.3143 7.6868 32 11.7566 32 16C32 18.8084 31.2607 21.5676 29.8565 23.9999C28.452 26.4323 26.4324 28.4519 23.9999 29.8565C21.5676 31.2607 18.8084 32 16 32ZM16 2.00021C12.2871 2.00021 8.72634 3.47518 6.10064 6.10064C3.47523 8.72628 2.00021 12.2875 2.00021 16C2.00021 19.7125 3.47517 23.2737 6.10064 25.8994C8.72628 28.5248 12.2875 29.9998 16 29.9998C19.7125 29.9998 23.2737 28.5248 25.8994 25.8994C28.5248 23.2737 29.9998 19.7125 29.9998 16C29.9998 13.5424 29.3529 11.1284 28.1241 9.00005C26.8954 6.87172 25.1282 5.10453 22.9998 3.87574C20.8715 2.64695 18.4575 2.0001 15.9999 2.0001L16 2.00021Z" fill="black"/>
<path d="M16 20.9998C15.7342 21.0013 15.4788 20.8969 15.29 20.7098L8.29004 13.7099L9.70009 12.2998L16 18.5895L22.2897 12.2998L23.6998 13.7099L16.6998 20.7098C16.5136 20.8944 16.2621 20.9986 15.9998 20.9998H16Z" fill="black"/>
</svg>
