<svg width="32" height="32" viewBox="0 0 32 32" fill="none" xmlns="http://www.w3.org/2000/svg">
<path d="M16 -1.39876e-06C20.2435 -1.02778e-06 24.3131 1.6857 27.3136 4.68637C30.3143 7.6868 32 11.7566 32 16C32 20.2434 30.3143 24.3131 27.3136 27.3136C24.3132 30.3143 20.2434 32 16 32C11.7566 32 7.68692 30.3143 4.68637 27.3136C1.6857 24.3132 1.02779e-06 20.2434 1.39876e-06 16C1.64429e-06 13.1916 0.739311 10.4324 2.14353 8.00006C3.54798 5.56773 5.56762 3.54809 8.00006 2.14353C10.4324 0.739307 13.1916 -1.64429e-06 16 -1.39876e-06ZM16 29.9998C19.7129 29.9998 23.2737 28.5248 25.8994 25.8994C28.5248 23.2737 29.9998 19.7125 29.9998 16C29.9998 12.2875 28.5248 8.72634 25.8994 6.10064C23.2737 3.47523 19.7125 2.00021 16 2.00021C12.2875 2.00021 8.72634 3.47517 6.10065 6.10064C3.47524 8.72628 2.00022 12.2875 2.00022 16C2.00022 18.4576 2.64707 20.8716 3.87586 22.9999C5.10465 25.1283 6.87184 26.8955 9.00016 28.1243C11.1285 29.353 13.5425 29.9999 16.0001 29.9999L16 29.9998Z" fill="black"/>
<path d="M16 11.0002C16.2658 10.9987 16.5212 11.1031 16.71 11.2902L23.71 18.2901L22.2999 19.7002L16 13.4105L9.71029 19.7002L8.30024 18.2901L15.3002 11.2902C15.4864 11.1056 15.7379 11.0014 16.0002 11.0002L16 11.0002Z" fill="black"/>
</svg>
