<svg width="32" height="32" viewBox="0 0 32 32" fill="none" xmlns="http://www.w3.org/2000/svg">
<circle cx="16" cy="16" r="16" fill="#3186C6"/>
<path fill-rule="evenodd" clip-rule="evenodd" d="M22.3391 11.4942C22.5665 11.3237 22.8885 11.3616 23.059 11.5889L23.0591 11.5889C24.1578 13.0474 24.745 14.7901 24.745 16.6275C24.745 21.2494 20.9944 25 16.3725 25C11.7506 25 8 21.2494 8 16.6275C8 12.214 11.4475 8.57708 15.7663 8.27397L15.3685 7.87612C15.1601 7.68666 15.1601 7.36465 15.3685 7.15628C15.5579 6.94791 15.8799 6.94791 16.0883 7.15628L17.3385 8.4065C17.5469 8.59596 17.5469 8.91797 17.3385 9.12634L16.0883 10.3766C15.9936 10.4713 15.861 10.5281 15.7284 10.5281C15.5957 10.5281 15.4632 10.4713 15.3684 10.3766C15.1601 10.1871 15.1601 9.8651 15.3684 9.65672L15.7093 9.31583C11.9777 9.65679 9.02271 12.8012 9.02271 16.6275C9.02271 20.6812 12.3187 23.9771 16.3723 23.9771C20.4259 23.9771 23.7219 20.6812 23.7219 16.6275C23.7219 15.0174 23.2104 13.502 22.2444 12.214C22.074 11.9866 22.1119 11.6646 22.3391 11.4942ZM16.3729 22.0068C13.399 22.0068 10.9933 19.5822 10.9933 16.6272C10.9933 13.6722 13.4179 11.2476 16.3729 11.2476C19.3279 11.2476 21.7525 13.6532 21.7525 16.6272C21.7525 19.6011 19.3469 22.0068 16.3729 22.0068ZM20.7004 16.7745C20.7054 16.7273 20.7107 16.6773 20.7107 16.6272H20.7107C20.7107 16.595 20.7085 16.5628 20.7064 16.5313C20.7022 16.4702 20.6983 16.412 20.7108 16.362H19.669C19.5174 16.362 19.4038 16.4757 19.4038 16.6272C19.4038 16.7788 19.5174 16.8924 19.669 16.8924H20.6918C20.6918 16.8567 20.696 16.8167 20.7004 16.7745ZM12.0446 16.4946C12.0399 16.5372 12.0351 16.5799 12.0351 16.6272C12.0351 16.6746 12.0399 16.7172 12.0446 16.7598C12.0493 16.8024 12.054 16.845 12.054 16.8924H13.0959C13.2474 16.8924 13.3611 16.7788 13.3611 16.6272C13.3611 16.4757 13.2474 16.362 13.0959 16.362H12.054C12.054 16.4094 12.0493 16.452 12.0446 16.4946ZM16.2256 20.9548C16.2729 20.9597 16.3229 20.965 16.3729 20.965C16.4203 20.965 16.4629 20.9603 16.5055 20.9556C16.5481 20.9508 16.5907 20.9461 16.6381 20.9461V19.9043C16.6381 19.7527 16.5245 19.6391 16.3729 19.6391C16.2214 19.6391 16.1077 19.7527 16.1077 19.9043V20.9461C16.1435 20.9461 16.1834 20.9503 16.2256 20.9548ZM17.0169 16.8924H18.2103L18.2103 16.8924C18.3618 16.8924 18.4755 16.7788 18.4755 16.6082C18.4755 16.4567 18.3618 16.343 18.2103 16.343H17.0169C16.9412 16.1726 16.8085 16.0399 16.6381 15.9642V13.104C16.6381 12.9524 16.5244 12.8388 16.3729 12.8388C16.2213 12.8388 16.1077 12.9524 16.1077 13.104V15.9832C15.8425 16.0968 15.6721 16.3432 15.6721 16.6272C15.6721 17.0061 15.9941 17.3281 16.3729 17.3281C16.657 17.3281 16.9222 17.1576 17.0169 16.8924ZM14.2514 14.1269L13.5126 13.3881H13.5126C13.38 13.5017 13.2474 13.6344 13.1337 13.7669L13.8724 14.5057C13.9292 14.5625 13.9862 14.5814 14.0619 14.5814C14.1377 14.5814 14.1946 14.5625 14.2514 14.5057C14.365 14.4109 14.365 14.2405 14.2514 14.1269ZM14.2323 18.7488C14.1376 18.6351 13.9672 18.6351 13.8535 18.7488L13.1148 19.4875C13.2284 19.62 13.3609 19.7527 13.4936 19.8663L14.2323 19.1276C14.346 19.0328 14.346 18.8624 14.2323 18.7488ZM18.4944 19.1276L19.2331 19.8663C19.3658 19.7527 19.4983 19.6202 19.6119 19.4875L18.8732 18.7488C18.7596 18.6351 18.608 18.6351 18.4944 18.7488C18.3807 18.8435 18.3807 19.0139 18.4944 19.1276ZM18.7027 14.5814C18.7786 14.5814 18.8354 14.5625 18.8922 14.5057L19.6119 13.7858C19.4983 13.6533 19.3658 13.5206 19.2331 13.407L18.5133 14.1269C18.3996 14.2216 18.3996 14.392 18.5133 14.5057C18.5701 14.5625 18.627 14.5814 18.7027 14.5814Z" fill="white"/>
</svg>
