<svg width="16" height="16" viewBox="0 0 16 16" fill="none" xmlns="http://www.w3.org/2000/svg">
<g clip-path="url(#clip0_1149_13775)">
<path d="M13.6 0.799805H2.40005C1.52005 0.799805 0.800049 1.5198 0.800049 2.3998V13.5998C0.800049 14.4806 1.52005 15.1998 2.40005 15.1998H8.00005V9.5998H6.40005V7.6198H8.00005V5.9798C8.00005 4.2486 8.96965 3.0326 11.0128 3.0326L12.4552 3.0342V5.1182H11.4976C10.7024 5.1182 10.4 5.715 10.4 6.2686V7.6206H12.4544L12 9.5998H10.4V15.1998H13.6C14.48 15.1998 15.2 14.4806 15.2 13.5998V2.3998C15.2 1.5198 14.48 0.799805 13.6 0.799805Z" fill="#898B8D"/>
</g>
<defs>
<clipPath id="clip0_1149_13775">
<rect width="16" height="16" fill="white"/>
</clipPath>
</defs>
</svg>
