<svg width="16" height="16" viewBox="0 0 16 16" fill="none" xmlns="http://www.w3.org/2000/svg">
<path d="M6.46244 0.00150068H6.44247C6.36725 -0.00675741 6.29237 0.0193561 6.2388 0.0726997L2.73913 3.57237C2.72339 3.58844 2.71 3.60652 2.69907 3.62616L2.69159 3.63989C2.68188 3.6593 2.67474 3.67995 2.67039 3.70115C2.66737 3.71767 2.66615 3.73441 2.66659 3.75115V15.75C2.66659 15.8163 2.69293 15.8799 2.7398 15.9268C2.78667 15.9737 2.85028 16 2.91657 16H13.4156C13.4819 16 13.5455 15.9737 13.5924 15.9268C13.6392 15.8799 13.6656 15.8163 13.6656 15.75V0.251476C13.6656 0.185188 13.6392 0.121577 13.5924 0.0747072C13.5455 0.0278373 13.4819 0.00149982 13.4156 0.00149982L6.46244 0.00150068ZM6.16627 0.855221V3.50117H3.52032L6.16627 0.855221ZM13.1656 15.5001H3.16655V4.00121H6.41624C6.48253 4.00121 6.54614 3.97487 6.59301 3.928C6.63988 3.88113 6.66622 3.81752 6.66622 3.75124V0.501539H13.1656V15.5001Z" fill="#1C1D1F"/>
<path d="M6.91629 11.5005H4.91648C4.77844 11.5005 4.6665 11.6124 4.6665 11.7505V13.7503C4.6665 13.8166 4.69284 13.8802 4.73971 13.927C4.78658 13.9739 4.85019 14.0003 4.91648 14.0003H6.91629C6.98258 14.0003 7.04619 13.9739 7.09306 13.927C7.13993 13.8802 7.16627 13.8166 7.16627 13.7503V11.7505C7.16627 11.6842 7.13993 11.6206 7.09306 11.5737C7.04619 11.5268 6.98258 11.5005 6.91629 11.5005ZM6.66632 13.5003H5.16646V12.0004H6.66632V13.5003Z" fill="#1C1D1F"/>
<path d="M7.09221 8.0782C7.04534 8.03133 6.98173 8.00488 6.91533 8.00488C6.84904 8.00488 6.78543 8.03133 6.73856 8.0782L5.91609 8.89944L5.09497 8.07832V8.0782C4.99721 7.98056 4.83886 7.98056 4.7412 8.0782C4.64356 8.17596 4.64356 8.33432 4.7412 8.43197L5.5649 9.25064L4.74378 10.0718H4.74366C4.64602 10.1695 4.64602 10.3279 4.74366 10.4255C4.84142 10.5232 4.99978 10.5232 5.09743 10.4255L5.9161 9.60563L6.73722 10.4268C6.83498 10.5244 6.99333 10.5244 7.09099 10.4268C7.18864 10.3291 7.18864 10.1708 7.09099 10.0731L6.27109 9.25064L7.09222 8.42951C7.1883 8.33209 7.1883 8.17563 7.09222 8.0782L7.09221 8.0782Z" fill="#1C1D1F"/>
<path d="M5.70873 5.89591L5.0925 5.27968V5.27979C4.99485 5.18203 4.8365 5.18203 4.73885 5.27979C4.64109 5.37744 4.64109 5.53579 4.73885 5.63344L5.53129 6.42588H5.53117C5.57816 6.47286 5.64177 6.4992 5.70806 6.4992C5.77446 6.4992 5.83807 6.47286 5.88494 6.42588L7.09231 5.21851C7.18996 5.12086 7.18996 4.9624 7.09231 4.86474C6.99466 4.76709 6.83631 4.76709 6.73866 4.86474L5.70873 5.89591Z" fill="#1C1D1F"/>
<path d="M7.91599 6.00093H11.4157C11.5537 6.00093 11.6656 5.889 11.6656 5.75095C11.6656 5.61291 11.5537 5.50098 11.4157 5.50098H7.91599C7.77795 5.50098 7.66602 5.61291 7.66602 5.75095C7.66602 5.889 7.77795 6.00093 7.91599 6.00093Z" fill="#1C1D1F"/>
<path d="M7.91599 9.50044H11.4157C11.5537 9.50044 11.6656 9.38851 11.6656 9.25046C11.6656 9.11242 11.5537 9.00049 11.4157 9.00049H7.91599C7.77795 9.00049 7.66602 9.11242 7.66602 9.25046C7.66602 9.38851 7.77795 9.50044 7.91599 9.50044Z" fill="#1C1D1F"/>
<path d="M7.91599 13.0004H11.4157C11.5537 13.0004 11.6656 12.8885 11.6656 12.7505C11.6656 12.6124 11.5537 12.5005 11.4157 12.5005H7.91599C7.77795 12.5005 7.66602 12.6124 7.66602 12.7505C7.66602 12.8885 7.77795 13.0004 7.91599 13.0004Z" fill="#1C1D1F"/>
</svg>
