<svg width="16" height="16" viewBox="0 0 16 16" fill="none" xmlns="http://www.w3.org/2000/svg">
<path d="M14.3039 6.7695C14.3859 7.20883 14.4306 7.66817 14.4306 8.1475C14.4306 11.8968 11.9213 14.5628 8.13127 14.5628C7.26937 14.5631 6.41587 14.3935 5.61953 14.0638C4.8232 13.7341 4.09963 13.2507 3.49018 12.6413C2.88073 12.0318 2.39733 11.3082 2.06762 10.5119C1.73791 9.71556 1.56834 8.86206 1.5686 8.00017C1.56834 7.13827 1.73791 6.28477 2.06762 5.48843C2.39733 4.69209 2.88073 3.96853 3.49018 3.35907C4.09963 2.74962 4.8232 2.26623 5.61953 1.93652C6.41587 1.60681 7.26937 1.43724 8.13127 1.4375C9.90327 1.4375 11.3839 2.0895 12.5199 3.14817L10.6699 4.99817V4.9935C9.98127 4.3375 9.10727 4.00083 8.13127 4.00083C5.96594 4.00083 4.20594 5.83017 4.20594 7.99617C4.20594 10.1615 5.96594 11.9948 8.13127 11.9948C10.0959 11.9948 11.4333 10.8715 11.7079 9.32883H8.13127V6.7695H14.3046H14.3039Z" fill="#898B8D"/>
</svg>
