<svg width="16" height="16" viewBox="0 0 16 16" fill="none" xmlns="http://www.w3.org/2000/svg">
<g clip-path="url(#clip0_1149_13772)">
<path fill-rule="evenodd" clip-rule="evenodd" d="M4.97675 0.710504C5.75875 0.674504 6.00808 0.666504 8.00008 0.666504C9.99208 0.666504 10.2414 0.675171 11.0227 0.710504C11.8041 0.745837 12.3374 0.870504 12.8041 1.05117C13.2927 1.23584 13.7361 1.5245 14.1027 1.89784C14.4761 2.26384 14.7641 2.7065 14.9481 3.19584C15.1294 3.6625 15.2534 4.19584 15.2894 4.97584C15.3254 5.75917 15.3334 6.0085 15.3334 7.99984C15.3334 9.99184 15.3247 10.2412 15.2894 11.0232C15.2541 11.8032 15.1294 12.3365 14.9481 12.8032C14.7641 13.2926 14.4756 13.736 14.1027 14.1025C13.7361 14.4758 13.2927 14.7638 12.8041 14.9478C12.3374 15.1292 11.8041 15.2532 11.0241 15.2892C10.2414 15.3252 9.99208 15.3332 8.00008 15.3332C6.00808 15.3332 5.75875 15.3245 4.97675 15.2892C4.19675 15.2538 3.66341 15.1292 3.19675 14.9478C2.70736 14.7638 2.26396 14.4753 1.89741 14.1025C1.52433 13.7363 1.23562 13.2931 1.05141 12.8038C0.870748 12.3372 0.746748 11.8038 0.710748 11.0238C0.674748 10.2405 0.666748 9.99117 0.666748 7.99984C0.666748 6.00784 0.675415 5.7585 0.710748 4.97717C0.746081 4.19584 0.870748 3.6625 1.05141 3.19584C1.2359 2.70656 1.52483 2.26338 1.89808 1.89717C2.26411 1.52417 2.70706 1.23547 3.19608 1.05117C3.66275 0.870504 4.19608 0.746504 4.97608 0.710504H4.97675ZM10.9634 2.0305C10.1901 1.99517 9.95808 1.98784 8.00008 1.98784C6.04208 1.98784 5.81008 1.99517 5.03675 2.0305C4.32141 2.06317 3.93341 2.1825 3.67475 2.28317C3.33275 2.4165 3.08808 2.5745 2.83141 2.83117C2.58811 3.06787 2.40087 3.35603 2.28341 3.6745C2.18275 3.93317 2.06341 4.32117 2.03075 5.0365C1.99541 5.80984 1.98808 6.04184 1.98808 7.99984C1.98808 9.95784 1.99541 10.1898 2.03075 10.9632C2.06341 11.6785 2.18275 12.0665 2.28341 12.3252C2.40075 12.6432 2.58808 12.9318 2.83141 13.1685C3.06808 13.4118 3.35675 13.5992 3.67475 13.7165C3.93341 13.8172 4.32141 13.9365 5.03675 13.9692C5.81008 14.0045 6.04141 14.0118 8.00008 14.0118C9.95875 14.0118 10.1901 14.0045 10.9634 13.9692C11.6787 13.9365 12.0667 13.8172 12.3254 13.7165C12.6674 13.5832 12.9121 13.4252 13.1687 13.1685C13.4121 12.9318 13.5994 12.6432 13.7167 12.3252C13.8174 12.0665 13.9367 11.6785 13.9694 10.9632C14.0047 10.1898 14.0121 9.95784 14.0121 7.99984C14.0121 6.04184 14.0047 5.80984 13.9694 5.0365C13.9367 4.32117 13.8174 3.93317 13.7167 3.6745C13.5834 3.3325 13.4254 3.08784 13.1687 2.83117C12.932 2.58788 12.6439 2.40064 12.3254 2.28317C12.0667 2.1825 11.6787 2.06317 10.9634 2.0305ZM7.06342 10.2605C7.58652 10.4783 8.169 10.5076 8.71137 10.3437C9.25373 10.1797 9.72234 9.83245 10.0372 9.36133C10.352 8.89022 10.4935 8.32442 10.4374 7.76057C10.3814 7.19673 10.1314 6.66982 9.73008 6.26984C9.47424 6.01415 9.16489 5.81838 8.8243 5.6966C8.48372 5.57483 8.12037 5.53008 7.76041 5.56558C7.40046 5.60108 7.05285 5.71596 6.74262 5.90192C6.43238 6.08789 6.16724 6.34033 5.96628 6.64107C5.76532 6.94181 5.63354 7.28336 5.58043 7.64114C5.52731 7.99893 5.55418 8.36403 5.65911 8.71018C5.76403 9.05633 5.9444 9.37491 6.18723 9.64299C6.43006 9.91106 6.7293 10.122 7.06342 10.2605ZM5.33475 5.3345C5.68476 4.98449 6.1003 4.70684 6.55761 4.51741C7.01493 4.32798 7.50508 4.23049 8.00008 4.23049C8.49508 4.23049 8.98523 4.32798 9.44255 4.51741C9.89987 4.70684 10.3154 4.98449 10.6654 5.3345C11.0154 5.68452 11.2931 6.10005 11.4825 6.55737C11.6719 7.01469 11.7694 7.50484 11.7694 7.99984C11.7694 8.49484 11.6719 8.98499 11.4825 9.44231C11.2931 9.89962 11.0154 10.3152 10.6654 10.6652C9.95852 11.3721 8.99978 11.7692 8.00008 11.7692C7.00039 11.7692 6.04164 11.3721 5.33475 10.6652C4.62786 9.95828 4.23073 8.99953 4.23073 7.99984C4.23073 7.00014 4.62786 6.04139 5.33475 5.3345ZM12.6054 4.79184C12.6922 4.71002 12.7616 4.61162 12.8096 4.50249C12.8576 4.39335 12.8833 4.27568 12.885 4.15646C12.8868 4.03723 12.8646 3.91887 12.8197 3.80838C12.7749 3.69789 12.7084 3.59751 12.6241 3.5132C12.5397 3.42888 12.4394 3.36234 12.3289 3.31752C12.2184 3.27269 12.1 3.25049 11.9808 3.25223C11.8616 3.25396 11.7439 3.27961 11.6348 3.32763C11.5256 3.37566 11.4272 3.4451 11.3454 3.53184C11.1863 3.70052 11.0992 3.92458 11.1025 4.15646C11.1059 4.38833 11.1995 4.60976 11.3635 4.77373C11.5275 4.93771 11.7489 5.03132 11.9808 5.0347C12.2127 5.03808 12.4367 4.95096 12.6054 4.79184Z" fill="#898B8D"/>
</g>
<defs>
<clipPath id="clip0_1149_13772">
<rect width="16" height="16" fill="white"/>
</clipPath>
</defs>
</svg>
