<svg width="16" height="16" viewBox="0 0 16 16" fill="none" xmlns="http://www.w3.org/2000/svg">
<g clip-path="url(#clip0_1149_13774)">
<path fill-rule="evenodd" clip-rule="evenodd" d="M0.666748 1.89184C0.666748 1.56686 0.795845 1.25519 1.02564 1.0254C1.25543 0.795603 1.5671 0.666506 1.89208 0.666506H14.1067C14.2678 0.666243 14.4273 0.697747 14.5762 0.759217C14.725 0.820686 14.8603 0.910912 14.9742 1.02473C15.0882 1.13855 15.1786 1.27372 15.2402 1.42251C15.3018 1.5713 15.3335 1.73079 15.3334 1.89184V14.1065C15.3336 14.2676 15.302 14.4271 15.2405 14.576C15.1789 14.7248 15.0886 14.8601 14.9748 14.974C14.8609 15.088 14.7257 15.1783 14.5768 15.24C14.428 15.3016 14.2685 15.3333 14.1074 15.3332H1.89208C1.73111 15.3332 1.57172 15.3015 1.42301 15.2398C1.2743 15.1782 1.1392 15.0879 1.0254 14.974C0.911613 14.8602 0.821369 14.725 0.75983 14.5763C0.69829 14.4276 0.666661 14.2681 0.666748 14.1072V1.89184ZM6.47208 6.25851H8.45808V7.25584C8.74475 6.68251 9.47808 6.16651 10.5801 6.16651C12.6927 6.16651 13.1934 7.30851 13.1934 9.40384V13.2852H11.0554V9.88117C11.0554 8.68784 10.7687 8.01451 10.0407 8.01451C9.03075 8.01451 8.61075 8.74051 8.61075 9.88117V13.2852H6.47208V6.25851ZM2.80542 13.1938H4.94408V6.16651H2.80542V13.1932V13.1938ZM5.25008 3.87451C5.25411 4.05762 5.22153 4.2397 5.15424 4.41005C5.08695 4.5804 4.98632 4.7356 4.85824 4.86653C4.73016 4.99746 4.57721 5.10149 4.40839 5.17251C4.23956 5.24353 4.05824 5.28012 3.87508 5.28012C3.69192 5.28012 3.51061 5.24353 3.34178 5.17251C3.17295 5.10149 3.02001 4.99746 2.89193 4.86653C2.76385 4.7356 2.66321 4.5804 2.59592 4.41005C2.52863 4.2397 2.49605 4.05762 2.50008 3.87451C2.508 3.51508 2.65634 3.17303 2.91334 2.92163C3.17034 2.67023 3.51556 2.52945 3.87508 2.52945C4.2346 2.52945 4.57982 2.67023 4.83682 2.92163C5.09383 3.17303 5.24217 3.51508 5.25008 3.87451Z" fill="#898B8D"/>
</g>
<defs>
<clipPath id="clip0_1149_13774">
<rect width="16" height="16" fill="white"/>
</clipPath>
</defs>
</svg>
