<svg width="25" height="24" viewBox="0 0 25 24" fill="none" xmlns="http://www.w3.org/2000/svg">
<path d="M4.5 16H10.112L8.989 19.367C8.787 19.975 8.889 20.649 9.264 21.169C9.639 21.689 10.247 22 10.888 22H12.5C12.797 22 13.078 21.868 13.269 21.64L17.969 16H20.5C21.603 16 22.5 15.103 22.5 14L22.5 5C22.5 3.897 21.603 3 20.5 3L7.193 3C6.78611 3.00135 6.38921 3.12616 6.05478 3.35792C5.72035 3.58969 5.46413 3.91749 5.32 4.298L2.563 11.649C2.52114 11.7613 2.4998 11.8802 2.5 12V14C2.5 15.103 3.397 16 4.5 16ZM20.5 14H18.5L18.5 5H20.5L20.5 14ZM4.5 12.181L7.193 5L16.5 5V14.638L12.032 20H10.886L12.448 15.317C12.4987 15.1667 12.5129 15.0064 12.4893 14.8496C12.4657 14.6927 12.405 14.5437 12.3123 14.415C12.2197 14.2862 12.0976 14.1814 11.9564 14.1092C11.8151 14.0371 11.6586 13.9996 11.5 14H4.5V12.181Z" fill="black"/>
</svg>
