<svg width="24" height="25" viewBox="0 0 24 25" fill="none" xmlns="http://www.w3.org/2000/svg">
<path d="M15.3128 7.72088C15.3128 9.57834 13.8068 11.0835 11.9502 11.0835V12.5835C14.6349 12.5835 16.8128 10.4071 16.8128 7.72088H15.3128ZM11.9502 11.0835C10.0923 11.0835 8.58643 9.5782 8.58643 7.72088H7.08643C7.08643 10.4072 9.26449 12.5835 11.9502 12.5835V11.0835ZM8.58643 7.72088C8.58643 5.86355 10.0923 4.35828 11.9502 4.35828V2.85828C9.26449 2.85828 7.08643 5.03455 7.08643 7.72088H8.58643ZM11.9502 4.35828C13.8068 4.35828 15.3128 5.86341 15.3128 7.72088H16.8128C16.8128 5.03469 14.6349 2.85828 11.9502 2.85828V4.35828Z" fill="#3186C6"/>
<path d="M11.9817 14.8388C15.0118 14.831 17.5882 16.2223 18.5352 19.2171C16.6263 20.3808 14.3795 20.829 11.9817 20.8231C9.58388 20.829 7.33704 20.3808 5.42822 19.2171C6.37632 16.219 8.94836 14.831 11.9817 14.8388Z" stroke="#3186C6" stroke-width="1.5" stroke-linecap="square"/>
<path d="M6.59473 13.9887C4.47036 13.9832 2.66407 14.9586 2.00013 17.0583C2.72482 17.5001 3.519 17.7948 4.36185 17.9715" stroke="#3186C6" stroke-width="1.5" stroke-linecap="square"/>
<path d="M8.01203 5.64342L8.70455 5.93136L8.12867 7.31641L7.43615 7.02847L8.01203 5.64342ZM8.28232 10.3343L8.75138 9.74913L9.92182 10.6872L9.45276 11.2725L8.28232 10.3343ZM4.64724 8.17929C4.19482 9.26741 4.71047 10.516 5.79807 10.9682L5.22218 12.3532C3.36991 11.5831 2.49161 9.45674 3.26219 7.60341L4.64724 8.17929ZM7.43615 7.02847C6.34855 6.57626 5.09966 7.09118 4.64724 8.17929L3.26219 7.60341C4.03278 5.75009 6.15976 4.87327 8.01203 5.64342L7.43615 7.02847ZM5.79807 10.9682C6.69518 11.3412 7.7031 11.057 8.28232 10.3343L9.45276 11.2725C8.46681 12.5026 6.75203 12.9893 5.22218 12.3532L5.79807 10.9682Z" fill="#3186C6"/>
<path d="M17.4058 13.9887C19.5301 13.9832 21.3364 14.9586 22.0004 17.0583C21.2757 17.5001 20.4815 17.7948 19.6386 17.9715" stroke="#3186C6" stroke-width="1.5" stroke-linecap="square"/>
<path d="M15.6985 10.3082L15.2382 9.71603L14.0539 10.6366L14.5142 11.2287L15.6985 10.3082ZM15.689 5.78379L15.0259 6.13412L15.7265 7.46043L16.3897 7.1101L15.689 5.78379ZM19.0678 7.6891C19.791 8.6195 19.6227 9.95984 18.6928 10.6827L19.6133 11.867C21.1971 10.6359 21.4839 8.35321 20.2521 6.76852L19.0678 7.6891ZM18.6928 10.6827C17.762 11.4062 16.4216 11.2385 15.6985 10.3082L14.5142 11.2287C15.7461 12.8136 18.029 13.0986 19.6133 11.867L18.6928 10.6827ZM16.3897 7.1101C17.2871 6.63602 18.4233 6.85992 19.0678 7.6891L20.2521 6.76852C19.153 5.35457 17.2186 4.97579 15.689 5.78379L16.3897 7.1101Z" fill="#3186C6"/>
</svg>
