<svg width="16" height="16" viewBox="0 0 16 16" fill="none" xmlns="http://www.w3.org/2000/svg">
<g clip-path="url(#clip0_1370_1715)">
<path d="M8 0C3.58863 0 0 3.58892 0 8C0 12.4111 3.58892 16 8 16C12.4111 16 16 12.4111 16 8C16 3.58892 12.4111 0 8 0ZM8 15.3754C3.93336 15.3754 0.624908 12.0669 0.624908 8.0003C0.624908 3.93366 3.93336 0.625204 8 0.625204C12.0666 0.625204 15.3751 3.93366 15.3751 8.0003C15.3751 12.0669 12.0666 15.3754 8 15.3754ZM12.0391 7.32356L6.13268 3.91352C5.888 3.77215 5.59588 3.77215 5.35143 3.91352C5.10675 4.05466 4.96085 4.30757 4.96085 4.59008V11.4102C4.96085 11.6927 5.10685 11.9456 5.35143 12.0867C5.47371 12.1574 5.60803 12.1926 5.74201 12.1926C5.87621 12.1926 6.01029 12.1573 6.13259 12.0867L12.039 8.67668C12.2837 8.53531 12.4296 8.28242 12.4296 8.00012C12.4297 7.71784 12.2837 7.46471 12.039 7.32356H12.0391ZM11.7266 8.13535L5.8202 11.5454C5.76756 11.5758 5.71643 11.5756 5.6639 11.5454C5.61138 11.515 5.58581 11.4708 5.58581 11.4101L5.5857 4.59007C5.5857 4.52944 5.61127 4.48525 5.66379 4.45483C5.69005 4.43967 5.71596 4.43204 5.74188 4.43204C5.76779 4.43204 5.79371 4.43967 5.81997 4.45483L11.7264 7.86487C11.7789 7.89529 11.8045 7.93948 11.8045 8.00011C11.8045 8.06073 11.7791 8.10492 11.7266 8.13535H11.7266Z" fill="#1C1D1F"/>
</g>
<defs>
<clipPath id="clip0_1370_1715">
<rect width="16" height="16" fill="white"/>
</clipPath>
</defs>
</svg>
