<svg width="16" height="16" viewBox="0 0 16 16" fill="none" xmlns="http://www.w3.org/2000/svg">
<g clip-path="url(#clip0_1149_13773)">
<path d="M15.6666 4.33821C15.576 4.01503 15.3995 3.72244 15.1559 3.49155C14.9054 3.25355 14.5985 3.0833 14.2639 2.99688C13.0119 2.66688 7.99592 2.66688 7.99592 2.66688C5.90481 2.64309 3.81421 2.74773 1.73592 2.98021C1.40138 3.07302 1.09497 3.24707 0.843923 3.48688C0.597257 3.72421 0.41859 4.01688 0.325257 4.33755C0.101052 5.54538 -0.00788215 6.77178 -7.68258e-05 8.00021C-0.00807683 9.22755 0.10059 10.4535 0.325257 11.6629C0.41659 11.9822 0.59459 12.2735 0.841923 12.5089C1.08926 12.7442 1.39726 12.9142 1.73592 13.0042C3.00459 13.3335 7.99592 13.3335 7.99592 13.3335C10.0897 13.3574 12.183 13.2527 14.2639 13.0202C14.5985 12.9338 14.9054 12.7635 15.1559 12.5255C15.3994 12.2947 15.5757 12.0021 15.6659 11.6789C15.896 10.4715 16.0078 9.24461 15.9999 8.01555C16.0172 6.78128 15.9055 5.54859 15.6666 4.33755V4.33821ZM6.40126 10.2829V5.71821L10.5746 8.00088L6.40126 10.2829Z" fill="#898B8D"/>
</g>
<defs>
<clipPath id="clip0_1149_13773">
<rect width="16" height="16" fill="white"/>
</clipPath>
</defs>
</svg>
